<svg xmlns="http://www.w3.org/2000/svg" width="32" height="32" viewBox="0 0 32 32" fill="#3382d1"><path d="M.498 5.476A1.051 1.051 0 000 6.39v21.333c0 .589.477 1.067 1.067 1.067.203 0 .396-.051.569-.163a13.122 13.122 0 0113.298-.284V4.602a15.303 15.303 0 00-14.436.874zM9.6 21.323H5.333a1.067 1.067 0 110-2.134H9.6a1.067 1.067 0 110 2.134zm0-4.267H5.333a1.067 1.067 0 110-2.134H9.6a1.067 1.067 0 110 2.134zm1.067-5.333c0 .589-.477 1.067-1.067 1.067H5.333a1.067 1.067 0 110-2.134H9.6c.589 0 1.067.477 1.067 1.067zM31.502 5.476a15.303 15.303 0 00-14.436-.874v23.741a13.124 13.124 0 0113.298.284 1.069 1.069 0 001.473-.335c.102-.173.163-.366.163-.569V6.39c0-.366-.183-.711-.498-.914zm-4.835 15.847H22.4a1.067 1.067 0 110-2.134h4.267a1.067 1.067 0 110 2.134zm0-4.267H22.4a1.067 1.067 0 110-2.134h4.267a1.067 1.067 0 110 2.134zm0-4.266H22.4a1.067 1.067 0 110-2.134h4.267a1.067 1.067 0 110 2.134z"></path></svg>
