<svg xmlns="http://www.w3.org/2000/svg" width="28" height="32" viewBox="0 0 28 32" fill="#3382d1"><path d="M8.615 20.267h-.173C3.789 20.277.01 24.056 0 28.719v2.215c0 .589.477 1.067 1.067 1.067H16c.589 0 1.067-.477 1.067-1.067v-2.215a8.471 8.471 0 00-8.452-8.452zM6.4 0h4.267A5.332 5.332 0 0116 5.333V12.8a5.332 5.332 0 01-5.333 5.333H6.4A5.332 5.332 0 011.067 12.8V5.333A5.332 5.332 0 016.4 0zM27.429 23.771a1.07 1.07 0 00-1.503-.01l-.01.01-2.438 2.448-.305-.315c-.416-.416-1.097-.416-1.514 0s-.416 1.097 0 1.514l1.067 1.067a1.07 1.07 0 001.503.01l.01-.01 3.19-3.19a1.086 1.086 0 000-1.524c0 .01 0 .01 0 0z"></path></svg>
