<svg class="text-primary" xmlns="http://www.w3.org/2000/svg" width="30" height="32" viewBox="0 0 30 32" stroke="#3382d1" fill="#3382d1"><path d="M29.379 20.45l-2.987-1.991a11.406 11.406 0 000-4.907l2.987-1.991c.447-.295.599-.884.366-1.361l-2.133-4.267a1.065 1.065 0 00-1.432-.467c-.03.02-.071.041-.102.061l-3.037 2.011a11.506 11.506 0 00-4.907-2.824V1.067C18.134.478 17.657 0 17.067 0H12.8c-.589 0-1.067.477-1.067 1.067v3.637a11.512 11.512 0 00-4.907 2.824L3.778 5.517a1.063 1.063 0 00-1.473.305c-.02.03-.041.071-.061.102L.111 10.191a1.06 1.06 0 00.366 1.361l2.987 1.991a11.406 11.406 0 000 4.907L.477 20.451a1.073 1.073 0 00-.366 1.361l2.133 4.267c.264.528.914.731 1.432.467.03-.02.071-.041.102-.061l3.037-2.011a11.506 11.506 0 004.907 2.824v3.637c0 .589.477 1.067 1.067 1.067h4.267c.589 0 1.067-.477 1.067-1.067v-3.637a11.512 11.512 0 004.907-2.824l3.037 2.011a1.063 1.063 0 001.473-.305c.02-.03.041-.071.061-.102l2.133-4.267a1.046 1.046 0 00-.356-1.361zm-14.446.883C11.987 21.333 9.6 18.946 9.6 16s2.387-5.333 5.333-5.333 5.333 2.387 5.333 5.333-2.387 5.333-5.333 5.333z"></path></svg>
