<svg xmlns="http://www.w3.org/2000/svg" width="32" height="32" viewBox="0 0 32 32" stroke="#3382d1" fill="#3382d1"><path d="M17.313 22.688c-.75 0-1.313-.625-1.313-1.375S16.563 20 17.313 20s1.375.563 1.375 1.313-.625 1.375-1.375 1.375zm0-5.375C16.563 17.313 16 16.75 16 16s.563-1.313 1.313-1.313 1.375.563 1.375 1.313-.625 1.313-1.375 1.313zm0-5.313c-.75 0-1.313-.563-1.313-1.313s.563-1.375 1.313-1.375 1.375.625 1.375 1.375S18.063 12 17.313 12zm5.375 4.688c-.375 0-.688-.313-.688-.688s.313-.688.688-.688.625.313.625.688-.25.688-.625.688zm0-5.375c-.375 0-.688-.25-.688-.625s.313-.688.688-.688.625.313.625.688-.25.625-.625.625zM4 4h24v2.688H4V4zm18.688 18c-.375 0-.688-.313-.688-.688s.313-.625.688-.625.625.25.625.625-.25.688-.625.688zM12 22.688c-.75 0-1.313-.625-1.313-1.375S11.25 20 12 20s1.313.563 1.313 1.313-.563 1.375-1.313 1.375zM6.688 18c-1.125 0-2-.875-2-2s.875-2 2-2 2 .875 2 2-.875 2-2 2zm0-5.312c-1.125 0-2-.875-2-2s.875-2 2-2 2 .875 2 2-.875 2-2 2zM4 28v-2.688h24V28H4zm8-16c-.75 0-1.313-.563-1.313-1.313S11.25 9.312 12 9.312s1.313.625 1.313 1.375S12.75 12 12 12zm0 5.313c-.75 0-1.313-.563-1.313-1.313s.563-1.313 1.313-1.313 1.313.563 1.313 1.313-.563 1.313-1.313 1.313zm-5.312 6c-1.125 0-2-.875-2-2s.875-2 2-2 2 .875 2 2-.875 2-2 2z"></path></svg>
